Coordinates
version=1
nRows=14
nColumns=24
inDegrees=yes

Units are S.I. units (second, meters, Newtons, ...)
Angles are in degrees.

endheader
time	pelvis_tilt	pelvis_list	pelvis_rotation	pelvis_tx	pelvis_ty	pelvis_tz	hip_flexion_r	hip_adduction_r	hip_rotation_r	knee_angle_r	ankle_angle_r	subtalar_angle_r	mtp_angle_r	hip_flexion_l	hip_adduction_l	hip_rotation_l	knee_angle_l	ankle_angle_l	subtalar_angle_l	mtp_angle_l	lumbar_extension	lumbar_bending	lumbar_rotation
      5.20500000	     -0.54687704	     -0.28440757	     -2.50480331	      1.34853521	      1.03593526	     -0.17307157	     -3.40838429	      5.24675977	     14.32875444	     -6.42018538	     13.73948609	    -15.65610318	      0.00000000	     26.80305188	     -5.21336646	    -16.02852007	    -54.59914419	      6.29722139	     -4.85881238	      0.00000000	    -11.50257943	     -1.20783544	      3.67786256
      5.21000000	     -0.57196792	     -0.20241473	     -2.68038223	      1.35445865	      1.03576205	     -0.17313931	     -3.89003255	      5.09566674	     14.49456377	     -6.09344904	     13.71995084	    -15.80857560	      0.00000000	     26.97938117	     -5.07728128	    -16.18874834	    -53.13972498	      6.80479120	     -4.45487666	      0.00000000	    -11.52266479	     -1.34908385	      3.88801908
      5.21500000	     -0.60007061	     -0.13537639	     -2.84617649	      1.36040677	      1.03552327	     -0.17324437	     -4.35923651	      4.95915064	     14.64940672	     -5.78939912	     13.71979180	    -15.94700418	      0.00000000	     27.13274684	     -4.94832625	    -16.33593526	    -51.62547923	      7.27233123	     -4.05618892	      0.00000000	    -11.54024004	     -1.46609579	      4.08899714
      5.22000000	     -0.72172468	     -0.11622508	     -2.93673567	      1.36636371	      1.03508000	     -0.17347520	     -4.70859383	      4.88555567	     14.65196988	     -5.52813680	     13.76385336	    -15.99863225	      0.00000000	     27.38520513	     -4.83229248	    -16.38065549	    -50.08337353	      7.69789726	     -3.64824183	      0.00000000	    -11.44799737	     -1.50796957	      4.20863429
      5.22500000	     -0.67413092	     -0.05507239	     -3.16932925	      1.37238223	      1.03484460	     -0.17355328	     -5.24594456	      4.73939575	     14.93530884	     -5.26358344	     13.78767360	    -16.15705891	      0.00000000	     27.37560556	     -4.72619378	    -16.60543231	    -48.43516329	      8.07928750	     -3.30620331	      0.00000000	    -11.55275102	     -1.62411831	      4.49252646
      5.23000000	     -0.69474041	     -0.03986938	     -3.29348846	      1.37844118	      1.03442955	     -0.17381050	     -5.70511363	      4.65175066	     15.07573796	     -5.01708822	     13.82160582	    -16.27673324	      0.00000000	     27.44168420	     -4.61134575	    -16.69462483	    -46.76277512	      8.43115390	     -2.94472700	      0.00000000	    -11.57637264	     -1.65792830	      4.63606862
      5.23500000	     -0.80802593	     -0.07899720	     -3.37265299	      1.38450608	      1.03381692	     -0.17409997	     -6.03842064	      4.64116671	     15.09106580	     -4.83115686	     13.89022430	    -16.32932150	      0.00000000	     27.60009009	     -4.52948489	    -16.69284007	    -45.06556579	      8.74080232	     -2.58352948	      0.00000000	    -11.48796503	     -1.63058869	      4.78192934
      5.24000000	     -0.75629950	     -0.07031076	     -3.57224332	      1.39063471	      1.03340523	     -0.17429280	     -6.55310160	      4.54534091	     15.32604109	     -4.64310806	     13.97348003	    -16.41606359	      0.00000000	     27.50620953	     -4.43301107	    -16.84707343	    -43.26209162	      9.00211914	     -2.31580200	      0.00000000	    -11.59547901	     -1.67599415	      5.02722221
      5.24500000	     -0.86850248	     -0.14936600	     -3.62948967	      1.39673763	      1.03266711	     -0.17466556	     -6.87404475	      4.57392534	     15.36130478	     -4.50126457	     14.06273455	    -16.45022996	      0.00000000	     27.61418232	     -4.35943484	    -16.76935838	    -41.47289177	      9.24733498	     -1.97004008	      0.00000000	    -11.51866153	     -1.58833412	      5.14609024
      5.25000000	     -0.78428803	     -0.16460252	     -3.80176829	      1.40297006	      1.03220523	     -0.17493951	     -7.41358380	      4.49604955	     15.54960738	     -4.35160399	     14.17418579	    -16.46199022	      0.00000000	     27.42711983	     -4.25228228	    -16.86770723	    -39.56483878	      9.42357299	     -1.72814695	      0.00000000	    -11.65587427	     -1.60188641	      5.36602235
      5.25500000	     -0.88668773	     -0.26202940	     -3.84971111	      1.40916290	      1.03138053	     -0.17535084	     -7.73623309	      4.53926461	     15.61088608	     -4.25047717	     14.29116789	    -16.45900343	      0.00000000	     27.46512203	     -4.17780096	    -16.74643762	    -37.68051524	      9.59747943	     -1.37989011	      0.00000000	    -11.58550879	     -1.48823707	      5.46802035
      5.26000000	     -0.81855568	     -0.31010198	     -3.97392625	      1.41545320	      1.03079454	     -0.17575811	     -8.24261174	      4.49665418	     15.70501290	     -4.14708889	     14.44769237	    -16.37790526	      0.00000000	     27.25036604	     -4.05861167	    -16.73740870	    -35.68864959	      9.69074078	     -1.15589356	      0.00000000	    -11.70930642	     -1.44607649	      5.65614260
      5.26500000	     -0.88934823	     -0.41243530	     -4.02397799	      1.42173930	      1.02995269	     -0.17623070	     -8.59728020	      4.53151344	     15.78395886	     -4.06691812	     14.58514999	    -16.30865542	      0.00000000	     27.19032826	     -3.96876551	    -16.56583543	    -33.70801949	      9.75371301	     -0.81640010	      0.00000000	    -11.66827107	     -1.32454335	      5.75081269
      5.27000000	     -0.82796869	     -0.48982745	     -4.09989745	      1.42807383	      1.02927654	     -0.17674905	     -9.08209891	      4.52255682	     15.81548042	     -4.00721121	     14.76196264	    -16.17143378	      0.00000000	     26.94121027	     -3.84149765	    -16.44270471	    -31.64820202	      9.73792687	     -0.59734010	      0.00000000	    -11.78750744	     -1.23870636	      5.89924328
